<?xml version="1.0" encoding="UTF-8"?>
<svg width="752pt" height="752pt" version="1.1" viewBox="0 0 752 752" xmlns="http://www.w3.org/2000/svg">
 <path d="m470.72 177.1c-36.617 0-66.301 29.684-66.301 66.301 0 36.617 29.684 66.301 66.301 66.301s66.301-29.684 66.301-66.301c0-36.617-29.684-66.301-66.301-66.301zm0 23.68c5.2305 0 9.4727 4.2422 9.4727 9.4727v23.68h23.68c5.2305 0 9.4727 4.2422 9.4727 9.4727 0 5.2305-4.2422 9.4727-9.4727 9.4727h-23.68v23.68c0 5.2305-4.2422 9.4727-9.4727 9.4727s-9.4727-4.2422-9.4727-9.4727v-23.68h-23.68c-5.2305 0-9.4727-4.2422-9.4727-9.4727 0-5.2305 4.2422-9.4727 9.4727-9.4727h23.68v-23.68c0-5.2305 4.2422-9.4727 9.4727-9.4727zm-132.6 4.7344c-68.004 0-123.13 55.129-123.13 123.13 0 20.496 5.332 39.828 14.207 56.828l108.92 189.43 108.92-189.43c8.875-17.004 14.207-36.332 14.207-56.828 0-3.4414-0.16797-6.8438-0.44531-10.211-37.125-4.8906-65.852-36.57-65.852-75.035 0-7.7461 1.2422-15.16 3.4023-22.199-17.805-10.004-38.355-15.688-60.234-15.688zm0 71.039c28.77 0 52.094 23.324 52.094 52.094s-23.324 52.094-52.094 52.094c-28.77 0-52.094-23.324-52.094-52.094s23.324-52.094 52.094-52.094z"/>
</svg>
